<?xml version="1.0" encoding="UTF-8"?>
<svg width="60px" height="60px" viewBox="0 0 60 60" version="1.1" xmlns="http://www.w3.org/2000/svg" xmlns:xlink="http://www.w3.org/1999/xlink">
    <!-- Generator: Sketch 42 (36781) - http://www.bohemiancoding.com/sketch -->
    <title>FlashOn</title>
    <desc>Created with Sketch.</desc>
    <defs>
        <path d="M230,80 C213.431458,80 200,66.5685425 200,50 C200,33.4314575 213.431458,20 230,20 C246.568542,20 260,33.4314575 260,50 C260,66.5685425 246.568542,80 230,80 Z M238.485236,55.0009385 C238.298444,54.7090052 237.950025,54.5619201 237.608318,54.6295904 L233.701334,55.4282124 L235.879648,48.8395808 L237.403629,44.2312857 L232.716478,45.7597409 L224.923762,48.3032513 L228.311194,38.8445019 C228.378865,38.6493205 228.434231,38.4317687 228.459398,38.2181317 C228.648428,36.641021 227.524317,35.2104362 225.948325,35.0208473 C224.370095,34.8312585 222.938951,35.9559286 222.749922,37.5330393 L221.2265,50.2203916 L221,52.1123651 L222.899803,51.9451467 L230.520268,51.2773913 L230.374861,56.10939 L226.304013,56.9398898 C226.022147,56.9969343 225.788377,57.197149 225.686591,57.4678304 C225.586484,57.7385118 225.631225,58.0427488 225.807951,58.272045 L230.719923,64.6722064 C230.880431,64.8819285 231.129301,65.0032878 231.393831,64.9999322 C231.44696,64.9999322 231.499531,64.9948989 231.552101,64.9837137 C231.753994,64.9428878 231.936312,64.8282396 232.059908,64.6587841 L238.454477,55.9483234 C238.659725,55.6692531 238.672029,55.2923125 238.485236,55.0009385 Z" id="path-1"></path>
        <mask id="mask-2" maskContentUnits="userSpaceOnUse" maskUnits="objectBoundingBox" x="0" y="0" width="60" height="60" fill="white">
            <use xlink:href="#path-1"></use>
        </mask>
    </defs>
    <g id="UI" stroke="none" stroke-width="1" fill="none" fill-rule="evenodd">
        <g id="Mac-13&quot;" transform="translate(-790.000000, -713.000000)" stroke="#FFFFFF" stroke-width="6" fill="#FFFFFF">
            <g id="Ventana" transform="translate(124.000000, 82.000000)">
                <g id="Botones" transform="translate(466.000000, 611.000000)">
                    <use id="FlashOn" mask="url(#mask-2)" xlink:href="#path-1"></use>
                </g>
            </g>
        </g>
    </g>
</svg>