<?xml version="1.0" encoding="UTF-8"?>
<svg width="60px" height="60px" viewBox="0 0 60 60" version="1.1" xmlns="http://www.w3.org/2000/svg" xmlns:xlink="http://www.w3.org/1999/xlink">
    <!-- Generator: Sketch 42 (36781) - http://www.bohemiancoding.com/sketch -->
    <title>Combined Shape</title>
    <desc>Created with Sketch.</desc>
    <defs>
        <path d="M237.925238,56.0764527 L234.535246,52.6864611 C234.148461,52.2996752 233.512234,52.2966138 233.12171,52.687138 C232.728463,53.080385 232.730882,53.7105242 233.121033,54.1006746 L236.511025,57.4906663 L233.121033,60.8806579 C232.734247,61.2674438 232.731186,61.9036702 233.12171,62.2941945 C233.514957,62.6874415 234.145096,62.6850219 234.535246,62.2948715 L237.925238,58.9048798 L241.31523,62.2948715 C241.702016,62.6816573 242.338242,62.6847188 242.728766,62.2941945 C243.122013,61.9009476 243.119594,61.2708083 242.729443,60.8806579 L239.339452,57.4906663 L242.729443,54.1006746 C243.116229,53.7138888 243.119291,53.0776623 242.728766,52.687138 C242.335519,52.2938911 241.70538,52.2963107 241.31523,52.6864611 L237.925238,56.0764527 Z M230,80 C213.431458,80 200,66.5685425 200,50 C200,33.4314575 213.431458,20 230,20 C246.568542,20 260,33.4314575 260,50 C260,66.5685425 246.568542,80 230,80 Z M233.239665,49.0006569 C233.108911,48.7963037 232.865018,48.6933441 232.625823,48.7407133 L229.890934,49.2997487 L231.415754,44.6877066 L232.48254,41.4619 L229.201535,42.5318186 L223.746633,44.3122759 L226.117836,37.6911513 C226.165205,37.5545243 226.203962,37.4022381 226.221579,37.2526922 C226.353899,36.1487147 225.567022,35.1473053 224.463827,35.0145931 C223.359067,34.8818809 222.357266,35.66915 222.224945,36.7731275 L221.15855,45.6542741 L221,46.9786556 L222.329862,46.8616027 L227.664188,46.3941739 L227.562402,49.776573 L224.712809,50.3579229 C224.515503,50.397854 224.351864,50.5380043 224.280614,50.7274813 C224.210539,50.9169583 224.241857,51.1299242 224.365565,51.2904315 L227.803946,55.7705444 C227.916302,55.91735 228.090511,56.0023014 228.275681,55.9999525 C228.312872,55.9999525 228.349671,55.9964292 228.386471,55.9885996 C228.527795,55.9600214 228.655418,55.8797678 228.741936,55.7611489 L233.218134,49.6638264 C233.361808,49.4684772 233.37042,49.2046187 233.239665,49.0006569 Z" id="path-1"></path>
        <mask id="mask-2" maskContentUnits="userSpaceOnUse" maskUnits="objectBoundingBox" x="0" y="0" width="60" height="60" fill="white">
            <use xlink:href="#path-1"></use>
        </mask>
    </defs>
    <g id="UI" stroke="none" stroke-width="1" fill="none" fill-rule="evenodd">
        <g id="Mac-13&quot;" transform="translate(-790.000000, -713.000000)" stroke="#FFFFFF" stroke-width="6" fill="#FFFFFF">
            <g id="Ventana" transform="translate(124.000000, 82.000000)">
                <g id="Botones" transform="translate(466.000000, 611.000000)">
                    <use id="Combined-Shape" mask="url(#mask-2)" xlink:href="#path-1"></use>
                </g>
            </g>
        </g>
    </g>
</svg>