<?xml version="1.0" encoding="UTF-8"?>
<svg width="60px" height="60px" viewBox="0 0 60 60" version="1.1" xmlns="http://www.w3.org/2000/svg" xmlns:xlink="http://www.w3.org/1999/xlink">
    <!-- Generator: Sketch 42 (36781) - http://www.bohemiancoding.com/sketch -->
    <title>Combined Shape</title>
    <desc>Created with Sketch.</desc>
    <defs>
        <path d="M30,80 C13.4314575,80 0,66.5685425 0,50 C0,33.4314575 13.4314575,20 30,20 C46.5685425,20 60,33.4314575 60,50 C60,66.5685425 46.5685425,80 30,80 Z M43.4919302,53.8751215 L41.0108177,52.1717478 C41.1880599,51.2811367 41.2592939,50.3840105 41.2203366,49.4981244 L43.9384509,48.1657631 C44.5152098,47.8852723 44.80137,47.2281536 44.6182849,46.612494 L44.109811,44.9092983 C43.9248468,44.293316 43.3245531,43.9013592 42.6893961,43.9825432 L39.7141503,44.3559921 C39.0318761,43.17706 38.1290283,42.1204136 37.0337219,41.2408256 L37.8448814,38.3261013 C38.0175007,37.7093266 37.7178398,37.0579793 37.1360448,36.7866838 L35.5235444,36.0347626 C34.9429315,35.7640183 34.2496852,35.9523653 33.8902574,36.4820298 L32.1760013,38.9766666 C31.0369098,38.7502384 29.8899339,38.7073021 28.7670065,38.8315287 L27.3070701,36.2496179 C26.9925907,35.692805 26.320303,35.4434483 25.7172738,35.6622031 L24.0464899,36.2709982 C23.4439299,36.491042 23.089211,37.1141985 23.2070973,37.7432953 L23.7500282,40.6654619 C22.8180472,41.2878269 21.9737085,42.0544603 21.2509296,42.951029 L18.318899,42.1367812 C17.7030033,41.9645718 17.0508235,42.2638813 16.7795139,42.8457067 L16.0281863,44.456934 C15.7569049,45.0386987 15.9468054,45.7307505 16.4746155,46.0918599 L18.9830384,47.8145372 C18.7997705,48.7441857 18.7267597,49.6797843 18.7789966,50.6031928 L16.0743584,51.927151 C15.4990401,52.207797 15.2113787,52.8647323 15.3946475,53.4799978 L15.9022889,55.1828421 C16.0869018,55.799657 16.6883063,56.1901022 17.3231564,56.1097345 L20.3408067,55.7319251 C21.0133942,56.8679249 21.8991311,57.8853731 22.9608455,58.7386321 L22.1519291,61.6549559 C21.9772345,62.2707998 22.2785322,62.9229103 22.8591451,63.1936546 L24.4716455,63.9455758 C25.0534405,64.2168713 25.7450056,64.0277772 26.106539,63.4990577 L27.8189139,61.0040235 C28.9436754,61.2278656 30.0752173,61.2721663 31.1861003,61.1534308 L32.7063011,63.8441486 C33.0193665,64.4017782 33.6923087,64.6509974 34.2955214,64.4307413 L35.9665762,63.8225522 C36.5680718,63.6035251 36.9255005,62.982075 36.8051608,62.3508009 L36.2433283,59.3189665 C37.1781818,58.6943984 38.0254338,57.9270569 38.7487425,57.0252368 L41.6485843,57.8305636 C42.2661471,58.0035504 42.9166436,57.703419 43.1879391,57.121624 L43.9392667,55.5103967 C44.2096852,54.9282665 44.021454,54.2370669 43.4919302,53.8751215 Z M30.0307692,55.6024415 C26.9282943,55.6024415 24.4120401,53.0857191 24.4120401,49.9837124 C24.4120401,46.8812375 26.9282943,44.3649833 30.0307692,44.3649833 C33.132709,44.3649833 35.6494314,46.8812375 35.6494314,49.9837124 C35.6494314,53.0857191 33.132709,55.6024415 30.0307692,55.6024415 Z" id="path-1"></path>
        <mask id="mask-2" maskContentUnits="userSpaceOnUse" maskUnits="objectBoundingBox" x="0" y="0" width="60" height="60" fill="white">
            <use xlink:href="#path-1"></use>
        </mask>
    </defs>
    <g id="UI" stroke="none" stroke-width="1" fill="none" fill-rule="evenodd">
        <g id="Mac-13&quot;" transform="translate(-590.000000, -713.000000)" stroke="#FFFFFF" stroke-width="6" fill="#FFFFFF">
            <g id="Ventana" transform="translate(124.000000, 82.000000)">
                <g id="Botones" transform="translate(466.000000, 611.000000)">
                    <use id="Combined-Shape" mask="url(#mask-2)" xlink:href="#path-1"></use>
                </g>
            </g>
        </g>
    </g>
</svg>